<?xml version="1.0" encoding="UTF-8"?>
<!DOCTYPE svg PUBLIC "-//W3C//DTD SVG 1.1//EN"
    "http://www.w3.org/Graphics/SVG/1.1/DTD/svg11.dtd">
<svg xmlns="http://www.w3.org/2000/svg" height="600.0" stroke-opacity="1" viewBox="0 0 800 600" font-size="1" width="800.0" xmlns:xlink="http://www.w3.org/1999/xlink" stroke="rgb(0,0,0)" version="1.1">
  <defs>
  </defs>
  <defs>
  </defs>
  <g stroke-linejoin="miter" stroke-opacity="1.0" fill-opacity="1.0" stroke="rgb(0,0,0)" stroke-width="2.417230443293051" fill="rgb(0,128,0)" stroke-linecap="butt" stroke-miterlimit="10.0">
    <path d="M 518.5911017461773,580.2348163756371 c 0.0,-10.916009493340946 -8.849174131021927,-19.765183624362876 -19.76518362436287 -19.765183624362876c -10.916009493340946,-6.683907291965355e-16 -19.765183624362876,8.849174131021925 -19.765183624362876 19.76518362436287c -1.336781458393071e-15,10.916009493340946 8.849174131021925,19.765183624362876 19.765183624362866 19.765183624362876c 10.916009493340946,2.0051721875896065e-15 19.765183624362876,-8.849174131021924 19.76518362436288 -19.76518362436287Z"/>
  </g>
  <defs>
  </defs>
  <g stroke-linejoin="miter" stroke-opacity="1.0" fill-opacity="1.0" stroke="rgb(0,0,0)" stroke-width="2.417230443293051" fill="rgb(0,128,0)" stroke-linecap="butt" stroke-miterlimit="10.0">
    <path d="M 320.9392655025485,580.2348163756371 c 0.0,-10.916009493340946 -8.849174131021927,-19.765183624362876 -19.76518362436287 -19.765183624362876c -10.916009493340946,-6.683907291965355e-16 -19.765183624362876,8.849174131021925 -19.765183624362876 19.76518362436287c -1.336781458393071e-15,10.916009493340946 8.849174131021925,19.765183624362876 19.765183624362866 19.765183624362876c 10.916009493340946,2.0051721875896065e-15 19.765183624362876,-8.849174131021924 19.76518362436288 -19.76518362436287Z"/>
  </g>
  <defs>
  </defs>
  <g stroke-linejoin="miter" stroke-opacity="1.0" fill-opacity="1.0" stroke="rgb(0,0,0)" stroke-width="2.417230443293051" fill="rgb(0,128,0)" stroke-linecap="butt" stroke-miterlimit="10.0">
    <path d="M 169.5291746758545,453.1866650064397 c 0.0,-10.916009493340946 -8.849174131021927,-19.765183624362876 -19.76518362436287 -19.765183624362876c -10.916009493340946,-6.683907291965355e-16 -19.765183624362876,8.849174131021925 -19.765183624362876 19.76518362436287c -1.336781458393071e-15,10.916009493340946 8.849174131021925,19.765183624362876 19.765183624362866 19.765183624362876c 10.916009493340946,2.0051721875896065e-15 19.765183624362876,-8.849174131021924 19.76518362436288 -19.76518362436287Z"/>
  </g>
  <defs>
  </defs>
  <g stroke-linejoin="miter" stroke-opacity="1.0" fill-opacity="1.0" stroke="rgb(0,0,0)" stroke-width="2.417230443293051" fill="rgb(0,128,0)" stroke-linecap="butt" stroke-miterlimit="10.0">
    <path d="M 135.2072934996258,258.53760427661473 c 0.0,-10.916009493340946 -8.849174131021927,-19.765183624362876 -19.76518362436287 -19.765183624362876c -10.916009493340946,-6.683907291965355e-16 -19.765183624362876,8.849174131021925 -19.765183624362876 19.76518362436287c -1.336781458393071e-15,10.916009493340946 8.849174131021925,19.765183624362876 19.765183624362866 19.765183624362876c 10.916009493340946,2.0051721875896065e-15 19.765183624362876,-8.849174131021924 19.76518362436288 -19.76518362436287Z"/>
  </g>
  <defs>
  </defs>
  <g stroke-linejoin="miter" stroke-opacity="1.0" fill-opacity="1.0" stroke="rgb(0,0,0)" stroke-width="2.417230443293051" fill="rgb(0,128,0)" stroke-linecap="butt" stroke-miterlimit="10.0">
    <path d="M 234.03321162144016,87.36609298499039 c 0.0,-10.916009493340946 -8.849174131021927,-19.765183624362876 -19.76518362436287 -19.765183624362876c -10.916009493340946,-6.683907291965355e-16 -19.765183624362876,8.849174131021925 -19.765183624362876 19.76518362436287c -1.336781458393071e-15,10.916009493340946 8.849174131021925,19.765183624362876 19.765183624362866 19.765183624362876c 10.916009493340946,2.0051721875896065e-15 19.765183624362876,-8.849174131021924 19.76518362436288 -19.76518362436287Z"/>
  </g>
  <defs>
  </defs>
  <g stroke-linejoin="miter" stroke-opacity="1.0" fill-opacity="1.0" stroke="rgb(0,0,0)" stroke-width="2.417230443293051" fill="rgb(0,128,0)" stroke-linecap="butt" stroke-miterlimit="10.0">
    <path d="M 419.76518362436286,19.76518362436292 c 0.0,-10.916009493340946 -8.849174131021927,-19.765183624362876 -19.76518362436287 -19.765183624362876c -10.916009493340946,-6.683907291965355e-16 -19.765183624362876,8.849174131021925 -19.765183624362876 19.76518362436287c -1.336781458393071e-15,10.916009493340946 8.849174131021925,19.765183624362876 19.765183624362866 19.765183624362876c 10.916009493340946,2.0051721875896065e-15 19.765183624362876,-8.849174131021924 19.76518362436288 -19.76518362436287Z"/>
  </g>
  <defs>
  </defs>
  <g stroke-linejoin="miter" stroke-opacity="1.0" fill-opacity="1.0" stroke="rgb(0,0,0)" stroke-width="2.417230443293051" fill="rgb(0,128,0)" stroke-linecap="butt" stroke-miterlimit="10.0">
    <path d="M 605.4971556272856,87.36609298499039 c 0.0,-10.916009493340946 -8.849174131021927,-19.765183624362876 -19.76518362436287 -19.765183624362876c -10.916009493340946,-6.683907291965355e-16 -19.765183624362876,8.849174131021925 -19.765183624362876 19.76518362436287c -1.336781458393071e-15,10.916009493340946 8.849174131021925,19.765183624362876 19.765183624362866 19.765183624362876c 10.916009493340946,2.0051721875896065e-15 19.765183624362876,-8.849174131021924 19.76518362436288 -19.76518362436287Z"/>
  </g>
  <defs>
  </defs>
  <g stroke-linejoin="miter" stroke-opacity="1.0" fill-opacity="1.0" stroke="rgb(0,0,0)" stroke-width="2.417230443293051" fill="rgb(0,128,0)" stroke-linecap="butt" stroke-miterlimit="10.0">
    <path d="M 704.3230737490999,258.5376042766147 c 0.0,-10.916009493340946 -8.849174131021927,-19.765183624362876 -19.76518362436287 -19.765183624362876c -10.916009493340946,-6.683907291965355e-16 -19.765183624362876,8.849174131021925 -19.765183624362876 19.76518362436287c -1.336781458393071e-15,10.916009493340946 8.849174131021925,19.765183624362876 19.765183624362866 19.765183624362876c 10.916009493340946,2.0051721875896065e-15 19.765183624362876,-8.849174131021924 19.76518362436288 -19.76518362436287Z"/>
  </g>
  <defs>
  </defs>
  <g stroke-linejoin="miter" stroke-opacity="1.0" fill-opacity="1.0" stroke="rgb(0,0,0)" stroke-width="2.417230443293051" fill="rgb(0,128,0)" stroke-linecap="butt" stroke-miterlimit="10.0">
    <path d="M 670.0011925728713,453.1866650064396 c 0.0,-10.916009493340946 -8.849174131021927,-19.765183624362876 -19.76518362436287 -19.765183624362876c -10.916009493340946,-6.683907291965355e-16 -19.765183624362876,8.849174131021925 -19.765183624362876 19.76518362436287c -1.336781458393071e-15,10.916009493340946 8.849174131021925,19.765183624362876 19.765183624362866 19.765183624362876c 10.916009493340946,2.0051721875896065e-15 19.765183624362876,-8.849174131021924 19.76518362436288 -19.76518362436287Z"/>
  </g>
</svg>